PathFileType	4	(X/Y/Z)	D:\TRACE\spotREDO_2-26-24\spot_justBody_Motion_2_3-v60.trc
DataRate	CameraRate	NumFrames	NumMarkers	Units	OrigDataRate	OrigDataStartFrame	OrigNumFrames
100.00	100.00	      21	9	mm	100.00	4376	      7000
Frame#	Time	front left toe			Front right toe			aft left toe			aft right toe			Arm			FL body			FR body			AL Body			AR Body			
		X1	Y1	Z1	X2	Y2	Z2	X3	Y3	Z3	X4	Y4	Z4	X5	Y5	Z5	X6	Y6	Z6	X7	Y7	Z7	X8	Y8	Z8	X9	Y9	Z9	

4376	43.750	-110.72722	21.93788	-160.44139	358.64914	30.47926	-144.64970	-173.01215	17.03234	340.43784	389.58847	26.96221	299.91202	95.02881	786.59290	-341.79132	9.33229	528.83392	-307.34589	165.16896	531.99597	-305.74213	-8.09311	580.53149	575.07959	139.65372	580.82019	578.35724	
4377	43.760	-109.71796	22.07240	-160.08345	358.35187	27.14267	-146.04138	-171.94708	16.07077	340.85980	390.49924	26.11037	300.10873	95.63266	786.82343	-341.39526	9.97785	529.06433	-307.20728	165.89299	532.20709	-305.55389	-7.37680	580.14032	575.19800	140.40320	580.42023	578.69141	
4378	43.770	-108.73456	23.12986	-159.57837	360.60376	28.56716	-144.73836	-171.49971	14.78785	341.09430	391.60764	25.70698	300.39743	96.10815	787.31720	-340.78909	11.03521	529.79706	-306.92078	166.89282	533.47516	-305.22379	-7.23492	579.57727	575.13922	140.91870	579.62415	579.03265	
4379	43.780	-107.61275	24.14006	-159.22754	361.09406	29.17144	-144.40654	-170.28322	14.12096	341.38791	392.50601	24.82990	300.67172	96.03385	788.57806	-340.08920	11.87040	530.53430	-306.56088	167.73111	534.17108	-304.46140	-6.02933	579.09052	575.78119	141.82602	579.23065	579.48822	
4380	43.790	-106.88176	24.63203	-158.99506	361.77094	29.90593	-144.23393	-169.47574	13.86095	341.61063	393.02420	24.35576	300.83136	96.99235	789.72217	-339.33585	12.35452	531.06036	-306.33527	168.35255	534.91663	-304.64215	-5.08330	578.81897	576.33716	142.61806	579.36017	579.57922	
4381	43.800	-106.19918	24.96562	-158.81412	362.63254	30.52338	-143.95793	-168.39148	13.27756	341.87918	394.38828	24.05546	301.12915	97.53677	790.09601	-339.12729	12.93106	531.35547	-305.76270	168.67195	535.05280	-304.47272	-4.33938	578.89386	576.39709	143.64545	578.95294	579.85016	
4382	43.810	-105.47412	25.27583	-158.20416	363.43021	30.60811	-143.66396	-167.49580	12.63398	342.20825	395.17859	23.39297	301.39041	98.16375	790.32587	-338.58359	12.86722	532.09210	-306.21558	169.07896	535.45862	-304.30521	-3.20430	578.45929	576.73907	144.31706	578.35913	580.20972	
4383	43.820	-104.77386	25.51092	-157.75647	364.24979	30.94083	-143.42291	-166.85062	11.81758	342.16638	395.80908	22.67452	301.75348	98.71490	790.62115	-338.11801	13.67665	532.31183	-305.55978	169.57065	535.69238	-303.81082	-2.53734	577.97839	576.99121	145.16135	577.78571	580.48547	
4384	43.830	-103.89074	25.79153	-157.56912	365.41510	32.11667	-142.59540	-166.25029	11.05029	342.57660	396.83777	21.99702	302.12674	99.03230	791.00629	-337.71198	14.39349	532.63367	-305.16864	170.19119	536.21069	-303.84201	-2.08452	577.37598	577.42877	145.72786	577.40234	580.72638	
4385	43.840	-103.29179	26.14106	-157.22488	365.35190	31.81289	-142.57921	-165.22546	10.03135	342.99988	397.46637	21.47313	302.37888	99.25862	791.39813	-337.45636	14.95209	532.94391	-305.22659	170.84930	536.48743	-303.67554	-1.63920	576.92010	577.46198	146.15593	577.01868	580.86523	
4386	43.850	-102.56721	26.55574	-156.80527	366.46622	32.09613	-142.11331	-164.77869	9.66467	342.99796	396.62613	20.27506	302.36456	99.97625	791.80884	-337.01541	15.61835	533.33905	-305.11862	171.30522	536.88031	-303.59747	-1.15630	576.31665	577.78259	146.60869	576.52637	581.06354	
4387	43.860	-101.92638	27.06338	-156.23740	366.98080	32.55594	-141.64345	-164.31467	9.08343	343.17371	398.87289	20.33587	302.68140	100.92795	792.04950	-336.43231	16.11232	533.57074	-305.10269	171.97809	536.96698	-303.12906	-0.72871	575.98706	577.80310	146.87276	576.05298	581.16840	
4388	43.870	-101.18407	27.24785	-156.41124	367.76416	32.89787	-141.21996	-163.43488	8.01292	343.55432	398.10706	19.28971	302.85721	101.51359	792.09790	-336.14160	16.57724	533.84686	-305.04422	172.82381	537.45123	-303.26978	-0.78887	575.56293	577.52930	147.31229	575.59595	581.45483	
4389	43.880	-100.36147	27.56978	-156.07404	368.53320	33.09766	-140.99371	-162.71954	7.11215	343.99271	398.63333	18.60801	303.05133	102.07176	792.55005	-335.84341	17.37750	534.14520	-304.78000	173.36963	537.77319	-303.12775	-0.37347	574.93329	577.79706	147.51187	575.18280	581.67279	
4390	43.890	-99.92739	27.96944	-155.80801	369.92575	34.17146	-140.37946	-161.90842	6.44181	344.06635	399.13776	18.17820	303.41553	102.39455	793.12415	-335.59412	17.47120	534.80927	-305.11063	173.60965	538.14014	-303.10785	0.04473	574.44098	578.16437	147.87970	574.61688	581.82275	
4391	43.900	-99.16408	28.25262	-155.18323	369.76547	33.96047	-140.08234	-161.54439	6.01206	344.33310	400.27200	17.71146	303.95523	103.04877	793.56464	-334.95905	18.38554	534.83801	-304.41666	174.11728	538.68805	-302.83679	0.09020	574.01086	578.21381	148.43758	573.99561	582.34119	
4392	43.910	-98.64216	28.67465	-155.03468	369.95505	34.51494	-139.52850	-161.11774	5.58567	344.43100	402.09241	17.66606	304.36069	103.28782	794.04358	-334.63821	18.87988	535.25342	-304.22958	174.69279	539.24133	-302.64581	0.29546	573.34790	578.29596	148.35217	573.52917	582.25244	
4393	43.920	-98.26587	29.19726	-154.66827	370.40317	34.36820	-139.94843	-160.45480	4.76998	345.08704	402.57437	17.15492	304.61121	103.75635	794.60449	-334.16104	19.37711	535.67438	-304.23932	175.09897	539.57611	-302.51935	0.82638	572.29657	578.75421	148.61185	572.88824	582.29431	
4394	43.930	-97.89625	29.33874	-154.44765	371.37607	34.96635	-139.47523	-159.83086	3.88699	345.44092	401.82968	15.97005	304.48660	104.02302	795.04883	-333.85400	19.73688	536.28265	-304.30817	175.54948	540.08734	-302.41028	1.15604	571.58643	578.77032	149.04021	572.08063	582.41119	
4395	43.940	-97.43301	29.73108	-154.28207	373.14233	36.65676	-138.30914	-159.51950	3.25221	345.57532	402.09430	15.48055	304.71829	104.27317	795.74207	-333.46124	20.04039	536.75409	-304.23129	175.96738	540.72211	-302.27451	1.56826	571.02386	578.82642	149.21190	571.18982	582.54498	
4396	43.950	-96.90500	30.14934	-154.10759	372.25461	35.99328	-138.92297	-159.29185	2.62624	345.75171	402.36258	14.85529	304.93719	104.68436	796.28937	-332.99307	20.24594	537.31030	-304.15320	176.24585	541.23462	-302.29099	1.60604	570.07214	578.92993	149.54689	570.59839	582.48950	
